<?xml version="1.0" encoding="utf-8"?>
<!-- Generator: Adobe Illustrator 18.1.1, SVG Export Plug-In . SVG Version: 6.00 Build 0)  -->
<svg version="1.1" xmlns="http://www.w3.org/2000/svg" xmlns:xlink="http://www.w3.org/1999/xlink" x="0px" y="0px"
	 viewBox="0 0 40 40" enable-background="new 0 0 40 40" xml:space="preserve">
<g id="Layer_1">
	<g>
		<g>
			<path fill="none" stroke="#000000" stroke-width="2" stroke-linecap="round" stroke-linejoin="round" stroke-miterlimit="10" d="
				M24.512,12.035c-0.553-0.309-1.72-1.114-1.72-2.404c0,0-1.382,1.963-7.303,2.12"/>
			<path fill="none" stroke="#000000" stroke-width="2" stroke-linecap="round" stroke-linejoin="round" stroke-miterlimit="10" d="
				M12.614,11.22c0,0-0.54-7.593,6.689-7.593c5.65,0,5.194,2.722,5.194,2.722s3.196-1.576,2.64,4.859"/>
			<path fill="none" stroke="#000000" stroke-width="2" stroke-linecap="round" stroke-linejoin="round" stroke-miterlimit="10" d="
				M26.321,15.176c0,2.95-1.671,5.322-3.136,6.792c-1.057,1.062-1.663,1.654-3.108,1.654c-1.159,0-1.512-0.38-2.441-1.074
				c-1.841-1.375-3.805-3.994-3.805-7.372"/>
			<path fill="none" stroke="#000000" stroke-width="2" stroke-linecap="round" stroke-linejoin="round" stroke-miterlimit="10" d="
				M27.679,11.22c0.616,0.113,0.478,1.021,0.264,2.183c-0.331,1.801-0.488,2.389-1.16,2.279"/>
			<path fill="none" stroke="#000000" stroke-width="2" stroke-linecap="round" stroke-linejoin="round" stroke-miterlimit="10" d="
				M12.388,11.22c-0.618,0.113-0.478,1.021-0.266,2.183c0.331,1.801,0.49,2.389,1.164,2.279"/>
		</g>
		<path fill="none" stroke="#000000" stroke-width="2" stroke-linecap="round" stroke-linejoin="round" stroke-miterlimit="10" d="
			M24.153,25.533c0.301,0.981,1.479,1.078,1.479,1.078l6.346,1.429c0,0,3.85,1.332,3.646,7.397
			c-4.761,0.68-10.623,0.877-13.658,0.936h-3.932c-3.036-0.059-8.899-0.256-13.659-0.936c-0.203-6.065,3.648-7.397,3.648-7.397
			l6.344-1.429c0,0,1.18-0.097,1.48-1.078"/>
	</g>
</g>
<g id="labels" display="none">
</g>
</svg>
